<?xml version="1.0" standalone="no"?>
<!DOCTYPE svg PUBLIC "-//W3C//DTD SVG 20010904//EN"
 "http://www.w3.org/TR/2001/REC-SVG-20010904/DTD/svg10.dtd">
<svg version="1.0" xmlns="http://www.w3.org/2000/svg"
 width="608.000000pt" height="608.000000pt" viewBox="0 0 608.000000 608.000000"
 preserveAspectRatio="xMidYMid meet">
<metadata>
Created by potrace 1.14, written by Peter Selinger 2001-2017
</metadata>
<g transform="translate(0.000000,608.000000) scale(0.100000,-0.100000)"
fill="#000000" stroke="none">
<path d="M0 3040 l0 -3040 3040 0 3040 0 0 3040 0 3040 -3040 0 -3040 0 0
-3040z m4257 2345 c11 -8 23 -24 26 -35 5 -20 1 -20 -224 -20 -126 0 -232 0
-236 -1 -18 -1 -12 31 8 50 21 20 34 21 214 21 151 0 195 -3 212 -15z m297
-120 c18 -9 44 -30 57 -48 l24 -32 3 -533 c1 -294 -1 -532 -5 -530 -5 1 -36
14 -71 28 l-62 25 0 377 0 378 -1460 0 -1460 0 0 -379 0 -378 -52 -21 c-29
-11 -61 -23 -71 -27 -17 -7 -17 19 -15 526 3 533 3 534 25 565 49 68 -70 64
1571 64 1315 0 1488 -2 1516 -15z m-2598 -1094 c57 -26 90 -65 119 -141 40
-104 31 -169 -33 -249 -44 -55 -104 -83 -557 -263 l-110 -44 -5 -707 -5 -707
-277 277 c-238 240 -278 284 -287 320 -17 63 14 990 35 1055 11 34 30 61 68
95 46 42 81 60 272 137 621 252 604 245 674 246 42 0 79 -7 106 -19z m2528
-57 c105 -41 205 -82 221 -89 17 -8 111 -46 209 -85 217 -86 226 -91 272 -137
62 -62 71 -97 78 -288 26 -734 28 -812 16 -856 -10 -39 -45 -77 -288 -322
l-277 -278 -5 708 -5 707 -230 93 c-126 52 -254 103 -282 114 -124 48 -198
127 -210 226 -4 41 0 65 21 120 43 113 109 161 225 162 57 1 84 -7 255 -75z
m-1484 -210 l40 -36 42 36 c72 62 105 32 38 -35 l-41 -42 23 -24 c13 -14 173
-174 356 -356 322 -321 355 -361 316 -374 -6 -2 -50 35 -98 82 -73 70 -87 80
-81 57 10 -41 25 -134 25 -159 0 -24 -12 -33 -150 -114 l-75 -44 -243 -5 -242
-5 0 43 0 42 203 0 204 0 23 -25 c13 -14 31 -25 39 -25 9 0 48 20 86 43 63 39
70 47 73 78 2 33 0 35 -80 81 l-83 47 -28 -27 -27 -26 -193 -1 c-105 -1 -198
0 -204 3 -8 2 -13 21 -13 43 l0 39 231 0 230 0 95 -55 94 -54 0 29 c0 43 -38
147 -75 205 -45 71 -144 159 -218 193 -90 43 -156 55 -256 49 -234 -15 -411
-158 -477 -387 -17 -59 -26 -75 -40 -75 -21 0 -24 30 -10 97 8 38 8 38 -78
-48 -47 -47 -91 -84 -98 -82 -41 14 -11 49 336 395 196 195 356 356 356 358 0
2 -18 22 -40 44 -40 40 -46 52 -33 64 14 14 34 6 73 -29z m40 -2864 l1460 0 2
1224 3 1224 65 -27 65 -28 3 -1317 c2 -1317 2 -1318 -19 -1355 -11 -20 -32
-45 -47 -56 -27 -20 -43 -20 -1532 -20 -1489 0 -1505 0 -1532 20 -15 11 -36
36 -47 56 -21 37 -21 38 -19 1355 l3 1317 65 28 65 27 3 -1224 2 -1224 1460 0z
m-175 2001 l0 -155 -60 3 c-33 1 -63 8 -67 14 -4 7 -8 69 -8 139 0 152 5 161
84 156 l51 -3 0 -154z m480 29 l29 -30 -24 -25 -23 -25 -209 0 -208 0 0 55 0
55 203 0 203 0 29 -30z m-836 -43 c5 -13 11 -45 12 -72 4 -45 2 -50 -18 -53
-13 -2 -23 -1 -23 1 0 2 -4 28 -10 56 -7 36 -6 59 0 72 14 25 29 24 39 -4z
m70 -234 c23 -43 28 -59 20 -70 -18 -21 -28 -16 -59 34 -35 55 -39 93 -11 93
13 0 29 -18 50 -57z m761 -120 c0 -5 -39 -153 -87 -330 l-86 -323 -44 0 c-52
0 -52 1 -18 125 14 50 46 167 71 260 25 94 52 194 60 223 l15 52 45 0 c24 0
44 -3 44 -7z m-726 -127 c69 -29 98 -134 57 -203 -12 -18 -45 -44 -82 -65
l-63 -33 81 -3 81 -3 4 -31 c10 -68 11 -68 -143 -68 l-139 0 0 48 c0 75 45
138 124 173 59 26 72 43 58 74 -15 32 -67 36 -77 5 -5 -16 -15 -20 -56 -20
-56 0 -62 12 -31 68 35 65 111 89 186 58z m386 -100 c0 -111 1 -115 23 -118
19 -3 22 -9 22 -48 0 -39 -3 -45 -22 -48 -20 -3 -23 -9 -23 -48 l0 -44 -50 0
-50 0 0 45 0 45 -90 0 -90 0 -1 38 c-2 59 -2 59 89 179 l86 113 53 0 53 0 0
-114z m670 102 c0 -7 -24 -101 -53 -208 l-53 -195 -72 -3 c-40 -2 -72 -1 -72
1 0 3 23 70 50 150 28 80 50 148 50 151 0 3 -34 6 -75 6 l-75 0 0 55 0 55 150
0 c113 0 150 -3 150 -12z m-2608 -305 l308 -308 0 -363 0 -363 -479 480 c-264
264 -484 489 -490 500 -6 11 -11 34 -11 52 0 29 17 50 138 171 136 136 138
138 182 138 l45 0 307 -307z m4492 167 l139 -139 -5 -45 c-5 -45 -14 -54 -492
-531 l-486 -487 0 364 0 363 309 308 308 307 45 0 c43 0 46 -2 182 -140z"/>
<path d="M3010 5125 c-15 -18 -5 -51 19 -58 25 -6 51 10 51 31 0 38 -46 56
-70 27z"/>
<path d="M2937 3688 c-79 -81 -93 -99 -70 -93 121 33 251 32 356 -1 11 -3 -26
39 -81 95 -54 56 -101 101 -103 100 -2 0 -48 -46 -102 -101z"/>
<path d="M3011 939 c-34 -14 -50 -39 -51 -80 0 -63 64 -99 123 -68 30 16 37
28 37 70 0 33 -28 79 -50 79 -4 0 -14 2 -22 4 -7 3 -24 0 -37 -5z"/>
<path d="M2857 2370 l-28 -40 35 0 c35 0 36 1 36 40 0 22 -3 40 -7 40 -5 0
-21 -18 -36 -40z"/>
</g>
</svg>
